<?xml version="1.0" standalone="no"?>
<!DOCTYPE svg PUBLIC "-//W3C//DTD SVG 1.1//EN" "http://www.w3.org/Graphics/SVG/1.1/DTD/svg11.dtd" >
<svg>
<metadata>
Created by FontForge 20090622 at Fri Oct 27 11:05:32 2017
 By deploy user
Des
</metadata>
<defs>
<font id="DoodlesOfFun" horiz-adv-x="353" >
  <font-face 
    font-family="DoodlesOfFun"
    font-weight="500"
    font-stretch="normal"
    units-per-em="1000"
    panose-1="2 0 6 3 0 0 0 0 0 0"
    ascent="1000"
    descent="0"
    x-height="685"
    cap-height="832"
    bbox="9 -70 938.385 939.154"
    underline-thickness="50"
    underline-position="-100"
    unicode-range="U+0020-U+3000"
  />
<missing-glyph horiz-adv-x="364" 
d="M66 33h199v600h-199v-600zM33 0v666h265v-666h-265z" />
    <glyph glyph-name=".notdef" horiz-adv-x="364" 
d="M66 33h199v600h-199v-600zM33 0v666h265v-666h-265z" />
    <glyph glyph-name=".null" horiz-adv-x="0" 
 />
    <glyph glyph-name="nonmarkingreturn" horiz-adv-x="333" 
 />
    <glyph glyph-name="space" unicode=" " horiz-adv-x="300" 
 />
    <glyph glyph-name="exclam" unicode="!" horiz-adv-x="216" 
d="M199 775q16 -129 16 -392q0 -15 0.5 -57t0.5 -65t-2.5 -58t-6.5 -64q-2 -11 -11.5 -18t-21 -5t-18.5 11.5t-5 21.5q5 26 7 58.5t2 54t-0.5 62.5t-0.5 59q0 259 -16 386q-1 11 6 20t18.5 10.5t20.5 -5.5t11 -19zM217 38q0 -12 -8 -20t-20 -8t-20 8t-8 20t8 20t20 8t20 -8
t8 -20z" />
    <glyph glyph-name="quotedbl" unicode="&#x22;" horiz-adv-x="244" 
d="M162 778q1 -44 8 -195q0 -11 -7.5 -19.5t-19 -9t-20 7t-9.5 19.5q-7 151 -8 195q0 12 8 20.5t19.5 8.5t20 -8t8.5 -19zM225 755q20 -90 20 -198q0 -12 -8 -20t-20 -8t-20 8t-8 20q0 102 -18 186q-3 11 3.5 21t17.5 12.5t21 -4t12 -17.5z" />
    <glyph glyph-name="numbersign" unicode="#" horiz-adv-x="937" 
d="M247 531q-33 50 -59 110q-8 -15 -18 -31l-24 -34l-19 -28q1 -3 3 -6l1 -4q1 -3 2 -3q7 -4 27 -6q19 -1 49 0q16 1 38 2zM736 574l12 2q8 1 59 3q34 1 48 7q17 8 22 20q3 5 6 17l2 7q-4 1 -6 2q-53 28 -76 51q1 -7 -4 -13q-39 -57 -63 -96zM516 117q-17 26 -36 59l-38 73
q-21 40 -33 61q-36 65 -73.5 108.5t-87.5 66.5q-5 2 -8 6q-16 -1 -30 -2q-31 -1 -53 0q-14 2 -25 4q23 -25 62 -58q79 -65 96 -83q25 -24 62 -68l59 -70q57 -65 105 -97zM586 152q13 12 25.5 25.5t26.5 30.5l23 28q9 10 25 32l21 29q6 8 23 34l21 31l22 34q19 29 20 31
l43 60q32 44 46 68q-5 -3 -11 -5q-22 -10 -62 -11q-49 -2 -55 -3q-27 -4 -54 -7q-5 -38 -25 -89q-6 -15 -21.5 -50.5t-21.5 -54.5q-33 -91 -46 -183zM379 627l-13 -30l-27 -60q68 4 126 9l-23 18l-23 20l-19 19q-12 12 -21 24zM492 575l21 20q10 10 21 23l18 22l20 26l18 24
l-188 -13q0 -6 -2 -11q7 -11 14.5 -20t17.5 -18.5l16 -15.5l22 -18l21 -18q1 0 1 -1zM698 589q26 42 69 103q7 12 21 8l-2 3q-68 -4 -142 -9q-1 -2 -3 -4l-5 -7q18 -29 62 -94zM665 567l-55 82q-53 -69 -85 -98q73 6 139 14q1 1 1 2zM542 151q-6 21 -11.5 47t-8.5 42l-7 50
q-5 32 -7 42q-17 111 -46 173q-70 -5 -153 -9q71 -50 135 -166q10 -17 44 -82.5t54 -96.5zM563 244q12 52 31 105q7 18 22.5 54t21.5 51q16 41 21 70q-73 -9 -155 -15q27 -64 44 -171q1 -9 6 -43t9 -51zM816 729q15 -20 32.5 -32.5t48.5 -28.5q4 -2 7 -6q6 2 11 0
q8 -3 12 -10t1 -15l-7 -24q-3 -12 -5 -18q2 -1 4 -1q8 -3 11.5 -11t0.5 -15q-11 -27 -29 -55.5t-42.5 -61t-33.5 -46.5l-21 -33l-23 -35l-22 -33l-25 -35l-23 -33q-17 -23 -27 -34l-26 -30q-16 -19 -29 -32l-29 -27q-16 -15 -32 -28q-1 -1 -2 -3q-2 -1 -5 -2l-6 -5
q-4 -3 -10 -4q-10 -12 -25 -5q-66 36 -141 122l-60 70q-35 42 -59 66q-16 16 -93 81q-61 50 -91 91q-5 7 -4 15t8 13q4 3 10 4q-2 4 -3 5q-5 9 -2 18q-1 7 3 14l26 38l29 43q12 19 21 38q4 7 12 10q5 6 14 7q429 32 596 42q9 1 16 -6q7 -2 12 -8zM297 543q11 20 32 70
q17 38 29 60l-136 -10q1 -1 1 -2q27 -64 63 -116q3 -5 3 -11q3 1 6 1q0 4 2 8zM94 714q-22 15 -40 24q-8 4 -10.5 12t1.5 15.5t12 10t15 -1.5q20 -11 44 -26q7 -5 8.5 -13t-3 -15t-12.5 -8.5t-15 2.5zM251 736q-10 11 -27 32l-33 38l-29 30q-6 6 -6 14t6 14t14 6t14 -6
l30 -31l33 -39l28 -32q5 -6 4.5 -14t-6.5 -13.5t-14 -5t-14 6.5zM397 744l-13 18q-5 7 -3.5 15t8 13t14.5 3.5t13 -7.5l13 -18q5 -7 3.5 -15t-8 -13t-14.5 -3.5t-13 7.5zM460 767q20 84 88 165q5 6 13.5 7t14.5 -4.5t7 -14t-5 -14.5q-61 -72 -80 -149q-2 -8 -9 -12t-15 -2
t-12 9t-2 15zM610 789l33 33q6 6 14 6t14 -6t6 -14t-6 -14l-33 -33q-6 -6 -14 -6t-14 6t-6 14t6 14zM724 793l44 50q12 14 40.5 40t54.5 42q8 4 16 2.5t12 -9t2.5 -15.5t-8.5 -12q-24 -15 -49.5 -38t-38.5 -37t-43 -49q-5 -6 -13.5 -7t-14.5 4.5t-7 14t5 14.5zM142 369
q-33 -27 -51 -40q-7 -5 -15.5 -3.5t-13 8t-3 15t7.5 12.5q17 12 49 38q7 6 15 5t13.5 -7.5t4.5 -14.5t-7 -13zM233 310l-29 -52l-33 -61q-47 -83 -72 -107q-6 -5 -14.5 -5t-14 6t-5.5 14.5t6 14.5q21 19 65 97q12 20 33.5 60t29.5 53q4 7 12 9t15 -2t9 -12t-2 -15zM299 204
l-11 -22q-4 -7 -12 -10t-15 1t-10 12t1 15l11 22q4 7 12 10t15 -1t10 -12t-1 -15zM380 168q-5 -22 -14 -44.5t-24.5 -56t-18.5 -40.5q-3 -8 -10.5 -11t-15.5 0.5t-11 11t1 15.5q4 10 19 42t23 52.5t13 40.5q2 8 9 12t15 2t12 -9t2 -15zM675 151l25 -26q6 -6 6 -14.5t-6 -14
t-14.5 -5.5t-13.5 6l-25 26q-6 6 -6 14.5t6 14t14.5 5.5t13.5 -6zM750 206q24 -26 59.5 -81.5t39.5 -60.5q5 -7 3.5 -15t-8 -13t-14.5 -3.5t-13 7.5q-9 13 -41.5 63.5t-55.5 74.5q-5 7 -5 15t6.5 13.5t14.5 5.5t14 -6zM815 264l32 -30q6 -6 6 -14.5t-5.5 -14.5t-14 -6
t-14.5 5l-32 30q-6 6 -6 14.5t5.5 14.5t14 6t14.5 -5zM862 365q6 -12 23.5 -43t29.5 -54.5t22 -46.5q3 -7 -0.5 -14.5t-11 -11t-15 0t-11.5 11.5q-8 21 -19 43l-29 52q-17 30 -25 43q-4 8 -1.5 16t10 12t15.5 1.5t12 -9.5z" />
    <glyph glyph-name="dollar" unicode="$" horiz-adv-x="738" 
d="M325 746q-74 -1 -130 -52q5 -14 -8 -19q-8 -3 -14 -7q-32 -49 -34 -103.5t20.5 -105t65.5 -100.5q13 -15 28 -30q18 -15 54 -40l48 -34q93 -69 158 -92q19 -7 36 -10q55 -13 113 -4q18 3 29 6q10 3 16 5v1v1l-5 12l-28 54q-48 90 -59 125q-10 29 -23 80q-15 53 -29 95.5
t-30 76.5q-5 11 -11 20q-73 115 -197 121zM326 614q-16 2 -28.5 13.5t-18.5 27.5q-8 15 -4.5 35.5t19.5 32.5q13 10 27 9t25 -7t20 -15q14 -14 21.5 -32.5t1.5 -35.5q-9 -26 -28 -33q-16 -5 -35 5zM332 188q31 -53 49 -76q9 -12 -3 -21t-21 3q-12 16 -25 36q0 -2 -1 -4
q-1 -15 -1 -18q-1 -6 -5.5 -10t-10.5 -3.5t-10 5t-4 10.5l1 8q-5 -12 -9 -24q-2 -6 -7.5 -8.5t-11.5 -0.5q-8 2 -10 11q-3 -2 -7 -2q-9 0 -13 8h-6q-6 1 -10 7q-3 -10 -4 -20q-1 -6 -6 -10t-11 -3t-10 6t-3 11q4 27 22 68q19 42 23 59q4 12 5 35q1 29 3 38l-12 13
q-87 69 -110 150q-20 72 -16 133q2 28 10 51l-14 7q-20 11 -33 20q-8 5 -14 10l-16 7q-14 7 -8 20q1 2 2 3q-2 13 8 21q14 12 47 11h11q5 6 14 5q2 6 3 19v20v20q1 13 5 20q7 13 23 12q10 0 24 -9q12 -9 30 -25l37 -36q1 -1 2 -1q32 12 74 12h13q10 0 21 -1
q132 -10 202 -136q36 -58 61 -142q5 -15 17 -67.5t25 -79.5q7 -16 24 -43q25 -41 28 -47q30 -52 33 -92q2 -5 2 -9q1 -7 -2 -13q-1 -9 -10 -12q-29 -10 -60 -14l-1 -1q-81 -14 -162 15q-91 30 -181 96q2 -20 1 -36q5 -2 8 -6zM273 219q4 -22 2 -57q-1 -5 -2 -17.5t-1 -18.5
l8 22q8 20 11 31q7 27 -2 73v4l-15 13q-1 -2 -1 -16q-1 -18 -3 -28q2 -3 3 -6zM337 355q17 -59 70.5 -94.5t123.5 -47.5q7 -1 10.5 -6t2.5 -11.5t-6 -10t-11 -2.5q-77 13 -138 53.5t-80 110.5q-2 6 1 11.5t9 7t11.5 -1.5t6.5 -9zM397 339q14 -32 32.5 -50.5t50.5 -30.5
q6 -2 8.5 -8t0.5 -11.5t-8 -8t-11 -0.5q-38 14 -61 36.5t-40 60.5q-6 14 8 20t20 -8zM424 358q10 -9 34 -38q16 -20 33 -29q13 -7 6 -20t-20 -6q-22 12 -42 36q-21 27 -31 34q-11 10 -1.5 21.5t21.5 1.5z" />
    <glyph glyph-name="percent" unicode="%" horiz-adv-x="869" 
d="M301 281h-160q16 -37 29 -60q44 -80 79 -90q11 -3 18 1q8 4 15 18q16 32 19 97q1 17 0 34zM163 335q107 -1 136 0q-1 12 -3 24q-3 22 -7 36q-5 -1 -12 -3q-21 -7 -52 -22q-29 -15 -62 -35zM567 303q-4 0 -28 -0.5t-36 -0.5q-58 -1 -99 3h-2l2 -3q27 -64 62 -96
q18 -17 33 -17q16 -1 34 20q26 30 34 94zM323 464q58 27 202 114q15 9 30 -1l1 1q7 6 17 6q4 1 8 0q5 -1 12 -3q11 -2 30 -9l84 -32q130 -50 142 -53q11 -2 17 -11.5t3.5 -20.5t-12 -17t-20.5 -3q-16 4 -150 55l-82 31v-1l5 -20l4 -19q1 -7 2 -9q11 -72 8 -136q1 -3 1 -6v-2
q66 -6 149 -33q10 -4 15 -14t1.5 -20.5t-13.5 -15.5t-21 -2q-78 27 -138 32q-12 -65 -45 -102q-34 -40 -76 -38q-35 1 -68 31q-42 39 -73 111q0 -17 -1 -32q-4 -76 -25 -119q-14 -28 -36 -41q-27 -15 -59 -6q-20 6 -38 19t-33.5 33.5t-23.5 32.5l-18 31q-11 20 -51 112
q-4 11 0 21t14 15l8 2q3 11 12 17q43 30 95 56q35 18 60 26q31 9 49 5q4 10 14 15zM410 359q37 -4 92 -3q13 0 37 0.5t32 0.5q0 51 -9 107q0 1 -1.5 8t-4 17.5t-3.5 19.5q-3 11 -4 20q-126 -75 -183 -104q10 -44 20 -76q9 11 24 10z" />
    <glyph glyph-name="ampersand" unicode="&#x26;" horiz-adv-x="412" 
d="M307 759q13 -101 17 -137q1 -12 -6.5 -21t-19 -10t-20.5 6.5t-10 18.5q-4 41 -17 135q-1 12 6 21t18.5 10.5t20.5 -5.5t11 -18zM339 499h-17h-14q-4 0 -10.5 -0.5t-11.5 -2.5l-12 -5q-11 -6 -27.5 -19.5t-21.5 -22.5q-4 -7 -4 -11h2q2 -2 6 -4q29 24 65 31q21 5 45 2
q23 -3 36 -15q21 -20 10 -50q-4 -12 -15 -18q-6 -3 -13 -6q-11 -4 -28 -6q-37 -5 -72 -2q-5 1 -9 2q-5 -8 -6 -15q-2 -9 7 -15q18 -14 65 -14q27 0 33 1l30 9q11 3 21.5 -2.5t13.5 -16.5t-2.5 -21.5t-16.5 -13.5q-33 -9 -37 -10q-10 -2 -42 -2q-65 0 -99 24q-36 27 -28 71
q2 11 7 22l-8 6q-18 15 -20 37q-3 21 11 45q9 17 32 36.5t41 27.5q10 5 19.5 8.5t20.5 4.5l16 2q5 0 17 -0.5t16 -0.5q12 0 20 -8t8 -20t-8 -20t-20 -8zM343 226q1 -13 8 -99q1 -11 -6.5 -20t-19 -10t-20.5 6.5t-10 19.5q-7 86 -8 99q-1 12 7 20.5t19.5 9.5t20 -7t9.5 -19z
" />
    <glyph glyph-name="quotesingle" unicode="'" horiz-adv-x="152" 
d="M134 783q3 -21 8.5 -73t10.5 -81q1 -11 -5.5 -20.5t-18 -11t-21 5t-11.5 18.5q-4 28 -10 81t-9 73q-1 12 6 21t18.5 10.5t20.5 -5.5t11 -18z" />
    <glyph glyph-name="parenleft" unicode="(" horiz-adv-x="250" 
d="M232 578q-44 -52 -70.5 -117.5t-29.5 -130.5q-6 -144 107 -219q9 -6 11.5 -17.5t-4 -21t-18 -12t-21.5 4.5q-70 47 -102 117t-29 151q3 74 33 148t79 133q8 9 19.5 10t20.5 -6.5t10 -19t-6 -20.5z" />
    <glyph glyph-name="parenright" unicode=")" horiz-adv-x="316" 
d="M178 584q72 -65 104 -138q33 -73 35 -170q2 -83 -29 -133q-7 -11 -19 -24t-19 -19l-24 -20q-16 -14 -18 -15q-9 -8 -20.5 -7t-19 10t-6.5 20.5t10 18.5q4 4 19 17l21 17q6 5 14.5 14.5t13.5 17.5q23 35 21 101q-2 88 -30 149q-28 62 -91 119q-8 8 -9 19.5t7 20t19.5 9.5
t20.5 -7z" />
    <glyph glyph-name="asterisk" unicode="*" horiz-adv-x="662" 
d="M149 502q-10 51 -21 124q-1 9 3 17l-17 33l-37 66l-12 19v-7q3 -25 11 -60q23 -89 73 -192zM324 202q-10 8 -11 20q-4 60 -3 115l-33 49q7 -34 30 -112q6 -20 -11 -30l29 -48zM373 286q0 -27 1 -55q17 44 51 117q-7 -4 -14 -3q-11 2 -17.5 10t-5.5 19q1 7 4 34t5 40l5 34
q4 23 8 41t9 36q-7 -21 -12 -41q-25 -94 -32 -187l6 -10q6 -9 3.5 -19t-11.5 -16zM317 420q6 11 18 13q9 49 22 99q26 98 75 185q65 115 141 151q35 16 57 4q18 -10 30 -46q7 -23 -1 -62q-6 -32 -23 -77q-23 -65 -83 -192l-39 -81l-38 -82l-31 -67q-17 -38 -27 -64t-14 -44
q-3 -16 -20 -20q1 -11 2 -20v-16q1 -4 0 -6q0 -8 -3 -14q-4 -6 -8 -9q-14 -12 -30 -3q-7 3 -11 10q-2 2 -5 7q-28 50 -28 51l-43 69q-30 48 -45 74l-75 131q-27 48 -61 125.5t-51 145.5q-10 38 -13 67q-2 28 2 45q8 34 37 39q15 2 29 -10q6 -5 14 -15q11 -14 27 -39l38 -69
l75 -147q21 -42 70 -115zM216 446q-2 19 -2 37l-12 21q6 -30 14 -58zM466 637q13 44 27 80q-8 -12 -15 -25q-22 -39 -41 -85l8 16q7 13 21 14zM511 556q-2 0 -3 1q-5 1 -9 4l-3 -10l-31 -121l41 87l14 31q-6 3 -9 8zM562 773l3 8q4 10 14 14t20 0q7 -3 11 -9q3 17 0 24
q-3 9 -5 14q-4 -1 -10 -4q-44 -20 -86 -79q10 6 21 1h2l3 12q2 9 10 14.5t17 4.5z" />
    <glyph glyph-name="plus" unicode="+" horiz-adv-x="859" 
d="M561 389q17 -51 47 -77q1 2 3 4l6 5l3 1q-4 0 -9 2q-19 4 -34 32q-8 14 -12 25q-2 3 -3 7zM542 481q1 -15 4 -29q6 9 20 19q-10 1 -18 6q-3 1 -6 4zM535 604q1 -33 2 -57q8 10 23 21q1 1 33 24l2 1l-2 2l-1 -1q-2 0 -4 -0.5t-5 -0.5q-31 -7 -47 10zM535 701v-34
q6 8 16 16q8 7 19 14h-11q-10 0 -17 2q-4 1 -7 2zM514 813q7 -8 11 -19l1 -1q3 3 13 15l5 5q-2 0 -3 1q-8 3 -24 0zM404 326l-6 16q-4 -11 -15 -15l-29 -12q-11 -5 -16 -6q-6 -2 -15 -2q3 -12 7 -22q42 25 67 38q3 2 7 3zM420 252l-4 22q-18 -9 -60 -34q-1 -1 -3 -2
q3 -3 5 -7q5 5 12 7zM379 377q-5 5 -11 8q-16 7 -46 -11q-2 -1 -3 -2q-2 -7 -3 -13h8q1 0 10 4l31 12q7 3 14 2zM494 419q3 -21 11 -62t13.5 -76.5t5.5 -67.5q0 -11 -7.5 -18.5t-18.5 -7.5t-19 8q-5 -11 -17 -14q-10 -3 -19.5 2.5t-11.5 16.5v1l-31 -9l1 -1q66 -43 186 -37
q15 1 57 12q39 11 81 26q42 16 65 29q-13 1 -36 1h-28h-26q-31 1 -39 3q-39 10 -81 43q-78 61 -92 229q-4 48 -5 131q0 84 -2 110q-2 32 -4 38q-3 7 -17 16h-2h-2q-10 -1 -16 1q-4 1 -8 3q-9 -13 -25 -11q-74 11 -129 -13t-73 -86q-14 -50 -1 -81q17 -40 57 -51q2 9 9 15.5
t17 6.5q22 0 35 7q8 4 32 23l-10 9q-8 8 -8 18.5t7.5 18.5t18 8t18.5 -7l26 -25h1q11 0 18.5 -7.5t7.5 -18.5t-7 -18t-15 -8q-7 -4 -15 -3q-2 -2 -4 -3q-34 -27 -45 -33l-4 -2q4 -2 7 -5q11 -11 11 -30q-1 -9 -4 -22q-4 -13 -15 -40q26 4 48 -6q34 -16 54 -65q8 -19 15 -46
l-17 90q-1 11 5.5 19.5t17 10t19 -5t10.5 -16.5zM322 720q0 -11 -7.5 -18.5t-18.5 -7.5t-18.5 7.5t-7.5 18.5t7.5 18.5t18.5 7.5t18.5 -7.5t7.5 -18.5zM405 119q0 -11 -7.5 -18.5t-18.5 -7.5q-9 0 -15 5l-33 -29l-6 -4l-8 -7q-8 -7 -19 -7t-18 8t-7 19t8 18l17 16
q10 8 13 11l7 7q3 3 5 6q6 10 4 49v1v1q-52 59 -63 156q-2 20 8 53q5 18 19 53l16 43v2q-3 0 -7 1l-44 7q-72 16 -100 83q-20 48 -1 115q13 45 41.5 76.5t63.5 44.5t76 18t79 -2l6 -2q4 10 14 15q7 4 17 4q3 1 11 1h4q6 1 17 4q16 4 22 6q32 7 55 -3q41 -18 39 -49
q-2 -18 -23 -41q-15 -16 -18 -22v-1h14q10 1 16 0q29 -2 41 -19q15 -22 -4 -55l-9 -9q-1 -1 -4 -3l-8 -5l-17 -12q15 2 26 -4q15 -7 26.5 -22.5t10.5 -33.5q-1 -14 -13 -25q-5 -5 -15 -11l-31 -23l-2 -1q19 2 32 -6q17 -10 22 -24q7 -17 -4 -34l-2 -2q20 -3 34 -26
q31 -48 44 -74q7 -13 9 -22q6 -17 -1 -29q-12 -22 -37 -12q-5 2 -10 6q-9 -10 -22 -19l-2 -2l20 -7q3 0 27 -1h26h29q35 0 54 -2q14 -1 22 -3q7 -2 12 -5q10 -5 14 -15q9 -21 -6 -43q-9 -12 -28 -25q-28 -19 -79 -38q-43 -16 -88.5 -28t-66.5 -13q-49 -3 -91 2v-3
q0 -11 -7.5 -18.5t-18.5 -7.5q-5 0 -8 1q-8 -15 -30 -46q-6 -9 -16.5 -10.5t-19.5 4.5t-10.5 16.5t4.5 19.5q23 33 25 39q2 7 -2 27q-7 3 -13 6q3 -6 3 -13zM217 230q0 -11 -7 -18q-5 -5 -11 -7q-2 -8 -7 -14q-8 -8 -18.5 -8t-18.5 7q-2 2 -54 43l-35 27q-8 7 -13 11
q-3 2 -4 4q-2 2 -3 4q-4 4 -5 10q-10 37 2 59q13 25 45 25q12 0 25 -5q11 19 17 28q22 32 46 37q21 5 37 -4q15 -9 22 -27q9 -21 7 -60q-2 -24 -7 -58q-1 -6 -4 -22q-2 -10 -2 -12q-1 -10 -9 -17q-2 -1 -3 -2v-1z" />
    <glyph glyph-name="comma" unicode="," horiz-adv-x="184" 
d="M159 130q17 -35 23.5 -59.5t0.5 -47.5q-4 -14 -15.5 -30t-19.5 -24l-28 -30q-8 -9 -19.5 -9t-20 8t-8.5 19.5t8 19.5q45 47 49 61q4 17 -20 68q-5 10 -1.5 21t14 16t21.5 1.5t16 -14.5z" />
    <glyph glyph-name="hyphen" unicode="-" horiz-adv-x="273" 
d="M92 396q8 -1 68.5 -3t91.5 -9q11 -2 17.5 -11.5t4 -21t-12 -18t-21.5 -3.5q-29 6 -80.5 7t-73.5 3q-11 1 -18.5 10t-6.5 20.5t10 19t21 6.5z" />
    <glyph glyph-name="period" unicode="." horiz-adv-x="169" 
d="M170 61q0 -12 -8 -20t-20 -8t-20 8t-8 20t8 20t20 8t20 -8t8 -20z" />
    <glyph glyph-name="slash" unicode="/" horiz-adv-x="300" 
d="M35 51q21 73 62.5 172t70.5 158l80 164q5 10 16 13.5t21.5 -1.5t14 -16t-1.5 -22l-80 -162q-29 -59 -69 -155t-60 -167q-3 -11 -13 -16.5t-21.5 -2.5t-17 13t-2.5 22z" />
    <glyph glyph-name="zero" unicode="0" horiz-adv-x="346" 
d="M161 672q-1 -26 -6 -90q-6 -73 -4 -118q6 -157 8 -199q4 -76 5 -84q5 -47 19 -69q5 -10 14 -15q6 0 18 12q26 27 44 75q33 92 32 190t-32 191q-18 50 -40.5 77t-57.5 30zM148 728q35 1 63 -11t47 -35t31 -46q12 -22 22 -53q35 -104 36 -209q1 -107 -36 -210
q-22 -58 -56 -94q-27 -29 -57 -29q-37 -1 -63 41q-20 33 -27 93q-1 9 -5 86q-2 44 -8 201q-2 47 4 124q7 92 7 118q0 12 8 20t20 8q8 0 14 -4z" />
    <glyph glyph-name="one" unicode="1" horiz-adv-x="227" 
d="M185 728q19 -132 28 -342q13 -315 15 -340q1 -12 -7 -20.5t-19.5 -9.5t-20 7t-9.5 19q-2 24 -15 341q-9 207 -28 337q-1 11 5.5 20.5t18 11t21 -5t11.5 -18.5z" />
    <glyph glyph-name="two" unicode="2" horiz-adv-x="336" 
d="M80 641q16 23 49 50t67 42q45 20 79 11q45 -13 55 -70q17 -84 -19 -225q-24 -96 -70 -212l-35 -89q-13 -34 -20 -54l-3 -9q14 -3 39 -3q18 -1 49 1q32 2 38 2q12 0 20 -8t8 -20t-8 -20t-20 -8q-3 0 -35 -2t-53 -1q-32 0 -52 5q-37 9 -45 36q-2 6 -1 12q0 2 1 5t2 8
q2 8 7 20q6 17 21 56l35 89q45 115 68 206q32 129 19 201q-5 23 -17 26q-14 4 -41 -8t-54 -34.5t-38 -38.5q-6 -9 -17.5 -11.5t-21 4t-12 18t4.5 21.5z" />
    <glyph glyph-name="three" unicode="3" horiz-adv-x="376" 
d="M100 684q4 5 12 14l12 12q4 4 11 10t14.5 11.5t17.5 10.5q100 57 160 18q53 -35 49 -122q-3 -85 -54 -159q18 -17 31 -44q18 -37 23 -82q6 -52 -10 -115q-16 -64 -48 -111q-39 -56 -92 -68q-62 -13 -125 38q-10 7 -11 18.5t6 21t18.5 10.5t20.5 -6q44 -35 79 -27
q31 7 58 45q26 38 40 92q13 54 8 96q-4 35 -17 64q-8 17 -18 26q-35 -32 -77 -43q-1 0 -5 -2q-6 -2 -10 -3q-21 -6 -37 3q-19 10 -25 25q-9 20 5 39q12 18 46 30q25 9 54 14q20 3 33 3q48 61 51 137q3 56 -24 73q-31 20 -101 -19q-9 -6 -16.5 -11.5t-10.5 -8.5l-12 -13
q-11 -11 -16 -15q-8 -9 -19.5 -9t-20 8t-8.5 19.5t8 19.5z" />
    <glyph glyph-name="four" unicode="4" horiz-adv-x="400" 
d="M230 695q-3 -11 -12 -35l-26 -64q-17 -40 -25 -61q-22 -55 -31 -86q-2 -10 -4 -17q7 -1 17 -2q31 -3 84 -7l35 -3q-9 145 -25 284q-1 11 6 20.5t18.5 10.5t21 -6t10.5 -19q16 -144 25 -295q43 -4 52 -5q12 -2 19 -11t5.5 -20.5t-10.5 -18.5t-20 -6q-9 1 -43 4
q8 -157 8 -323q0 -12 -8 -20t-20 -8t-20 8t-8 20q0 168 -8 328l-43 4q-66 6 -84 8l-29 3q-6 1 -10 1l-4 2q-7 1 -12 5q-16 13 -14 41q1 14 7 37q10 33 33 92l25 62l25 60q9 22 11 31q3 11 13 17t21 3t17 -13t3 -21z" />
    <glyph glyph-name="five" unicode="5" horiz-adv-x="401" 
d="M317 677q-68 10 -98 7q-18 -3 -23 -11q-6 -11 -6 -46q-1 -9 -1 -27v-36q0 -18 -1 -35q-1 -12 -1 -60v-32q36 5 55 4q92 -4 139 -93q18 -35 21 -81t-9 -88q-13 -45 -43 -79.5t-76 -44.5q-12 -3 -25 -3t-26 2.5t-24.5 5.5t-24.5 8.5l-22 9.5l-20 10q-11 5 -16 8
q-10 4 -14 15t0.5 21.5t15.5 14.5t22 -1l20 -9l18 -9l19 -8t17 -6.5t16.5 -4.5t16 -1.5t15.5 1.5q56 13 77 86q10 34 7 68q-2 34 -15 59q-32 61 -91 63q-15 1 -47 -3q-14 -2 -22 -2q-18 0 -29 10q-4 3 -6 6.5t-3 5.5v3q-1 2 -1 4t-1 6v14v40q0 51 1 62q1 24 1.5 60t0.5 37
q0 49 13 72q18 33 66 39q36 5 112 -6q12 -2 18.5 -11.5t5 -21t-11 -18t-20.5 -5.5z" />
    <glyph glyph-name="six" unicode="6" horiz-adv-x="391" 
d="M334 235q2 11 2 21q-15 -12 -33 -42q-34 -55 -45 -99q-1 -5 -4 -9q7 -4 13 -3q19 5 39 45q19 40 28 87zM207 720q-36 -200 -40 -301q-6 -171 46 -264q17 48 42 88q23 38 45 56q38 31 72 12q13 -7 18 -23q2 -8 3 -19q0 -18 -4 -43q-10 -56 -33 -103q-32 -63 -75 -74
q-57 -15 -106 61q-71 109 -64 311q4 116 40 309q3 12 12.5 18.5t21 4t18 -12t4.5 -20.5z" />
    <glyph glyph-name="seven" unicode="7" horiz-adv-x="295" 
d="M107 705q11 -2 70 4q30 3 43 3q27 0 41 -7q24 -13 32 -43q5 -20 3 -48q-1 -18 -6 -43q-5 -29 -5 -31q-34 -257 -34 -452q0 -12 -8 -20t-20 -8t-20 8t-8 20q0 199 34 460q1 2 6 33q4 24 5 37q2 19 -1 30q-2 6 -4 7l-14 1q-13 0 -38 -3q-66 -6 -84 -4q-12 2 -18.5 11.5
t-5 21t11 18t20.5 5.5z" />
    <glyph glyph-name="eight" unicode="8" horiz-adv-x="374" 
d="M194 472q38 68 52 107q29 86 -19 115q-8 5 -11 15q-21 -6 -27 -9q-36 -19 -55.5 -69t-6.5 -89q3 -6 7 -12.5t7.5 -11t11.5 -12t12 -10.5t14.5 -12t14.5 -12zM267 735q73 -54 32 -174q-16 -45 -62 -127q155 -146 137 -304q-7 -57 -56.5 -83.5t-104.5 -16.5
q-60 12 -95 63.5t-23 134.5q11 73 72 194l-1 1q-1 0 -21 16.5t-29 24.5t-22 26q-13 17 -19 34q-21 58 7 128q27 69 81 98q14 7 71 20q11 3 21 -3t12 -18q2 -7 0 -14zM210 382q-50 -100 -59 -162t13.5 -95t59.5 -40q36 -7 63.5 8.5t30.5 42.5q14 125 -108 246z" />
    <glyph glyph-name="nine" unicode="9" horiz-adv-x="348" 
d="M286 637v5q0 27 1 46q-7 6 -14 10q-12 6 -35 7q-15 1 -33 0q-20 -1 -25 -3q-15 -8 -31.5 -36t-24.5 -65q-9 -38 -5 -68q4 -26 16 -36q37 -28 83 10q21 18 38 45t23 49q5 20 7 36zM345 676q-1 -27 -3 -42q2 -45 1 -63q-8 -192 -8 -460q0 -12 -8 -20t-20 -8t-20 8t-8 20
q0 221 5 384q-14 -17 -30 -31q-22 -18 -45 -27.5t-52.5 -6.5t-55.5 23q-31 23 -37 73q-6 39 5 87q10 46 33 85.5t54 53.5q15 7 46 9q21 1 40 0q35 -2 57 -14q5 -2 10 -5q6 2 13 1q12 -2 19 -13q3 -4 4 -10q0 -2 1 -5v-10v-1q7 -14 -1 -28z" />
    <glyph glyph-name="colon" unicode=":" horiz-adv-x="250" 
d="M218 433q0 -12 -8 -20t-20 -8t-20 8t-8 20t8 20t20 8t20 -8t8 -20zM251 118q0 -12 -8 -20t-20 -8t-20 8t-8 20t8 20t20 8t20 -8t8 -20z" />
    <glyph glyph-name="semicolon" unicode=";" horiz-adv-x="223" 
d="M141 378q11 17 31 12h2h4q3 0 7 -1q25 -2 36 -21q6 -11 2 -27q-2 -8 -6 -17q-9 -20 -21 -32q-10 -11 -22 -14q-23 -5 -37 15q-12 17 -9 63q1 14 13 22zM192 107q16 -56 2.5 -86.5t-65.5 -54.5q-11 -5 -21.5 -1t-15.5 14.5t-1 21t14 15.5q33 16 38.5 27.5t-5.5 47.5
q-3 11 2.5 21.5t16.5 13.5t21.5 -2.5t13.5 -16.5z" />
    <glyph glyph-name="less" unicode="&#x3c;" horiz-adv-x="419" 
d="M188 284l38 -4q126 -13 177 -36q11 -5 15 -16t-0.5 -21.5t-15.5 -14.5t-21 0q-46 21 -160 33l-27 3l-28 2q-11 1 -19 2q-17 3 -26 5q-8 2 -13 4q-13 7 -17 20q-6 19 8 33q6 6 16 10q8 4 10 4q0 1 1 1q45 32 76.5 52.5t81 42.5t93.5 29q11 1 20.5 -5.5t11 -18t-5 -21
t-18.5 -11.5q-81 -12 -197 -93z" />
    <glyph glyph-name="equal" unicode="=" horiz-adv-x="500" 
d="M191 264q177 9 284 2q11 -1 19 -9.5t7 -20t-9.5 -19.5t-20.5 -7q-103 7 -278 -2q-11 -1 -19.5 7t-9.5 19.5t7 20t20 9.5zM176 352q104 11 224 11q12 0 20 -8t8 -20t-8 -20t-20 -8q-117 0 -218 -11q-12 -1 -21 6t-10 19t6 21t19 10z" />
    <glyph glyph-name="greater" unicode="&#x3e;" horiz-adv-x="439" 
d="M191 484q4 0 124 -18l71 -11q16 -3 25 -6q6 -2 10 -4q4 -1 7 -4q8 -6 11 -16q2 -9 -1 -18q-1 -4 -4 -8q-2 -5 -7 -11l-24 -28l-72 -76l-50 -50l-47 -49l-24 -24q-7 -9 -19 -10t-20.5 6.5t-9.5 19.5t7 20q5 7 23 25l49 50l51 52q46 47 70 74l4 3q-21 4 -58 10
q-122 17 -128 19q-11 2 -17.5 11.5t-4 21t12 18t21.5 3.5z" />
    <glyph glyph-name="question" unicode="?" horiz-adv-x="528" 
d="M118 592q11 80 68.5 143t130.5 88q78 26 136 -2q68 -32 76 -122q6 -70 -50 -161q-26 -42 -95 -126l-24 -28l-24 -26q-7 -9 -15 -23t-12 -28q-4 -12 -4 -27t1.5 -24.5t5.5 -31.5l6 -32q1 -11 -5.5 -20.5t-18 -11t-21 5t-11.5 18.5q0 4 -5 28t-6.5 37t-1 34.5t5.5 39.5
q5 19 17 39t21 31.5t26 30t21 24.5q68 82 92 120q46 74 41 125q-5 59 -44 78q-38 18 -94 -1q-60 -21 -106.5 -72t-54.5 -114q-2 -11 -11 -18t-20.5 -5.5t-18.5 10.5t-6 21zM313 60q0 -12 -8 -20t-20 -8t-20 8t-8 20t8 20t20 8t20 -8t8 -20z" />
    <glyph glyph-name="at" unicode="@" horiz-adv-x="506" 
d="M376 602q7 3 16 1q6 -1 11 -5t6 -7l1 -3q2 -3 2 -5l1 -4v-3q1 -5 1 -17.5t1 -26.5q5 -64 28 -158q4 30 5 49q4 39 3.5 81.5t-10.5 72.5q-10 32 -33 63t-52 51q-65 44 -125 14q-47 -24 -75 -96t-31 -168q-3 -95 19 -177t60 -119q24 -22 55.5 -30t62.5 -5t70 14
q12 3 22 -2.5t13 -17t-2.5 -21.5t-16.5 -13q-160 -44 -242 35q-50 49 -75 141q-25 94 -22 196q3 106 36.5 192.5t99.5 120.5q90 45 182 -18q38 -25 66 -63.5t42 -78.5q12 -39 12.5 -90.5t-3.5 -83.5q-2 -43 -11 -92q-6 -31 -13 -49q-5 -13 -12 -21q-17 -18 -38 -10
q-20 6 -25 28q-2 -15 -5 -28q-13 -63 -44 -90q-43 -38 -106 -7q-78 38 -103 151q-20 96 4 196q26 108 86 141q68 38 139 -38zM348 549q-49 62 -84 42q-39 -21 -59 -105q-21 -88 -3 -171q19 -87 72 -113q30 -14 45 -1q17 15 27 60q4 21 6.5 48t3 45t1 44.5t0.5 31.5
q1 31 1 42q1 5 1 7v34v16q-1 6 -1 12q-6 3 -10 8z" />
    <glyph glyph-name="A" unicode="A" horiz-adv-x="356" 
d="M252 442q-12 99 -30 170q-10 -67 -34 -173q20 0 64 3zM244 729q46 -120 69 -323q3 -23 9 -78l10 -84q3 -30 9.5 -74.5t14.5 -81.5q3 -11 -3.5 -21t-17.5 -12.5t-21 4t-12 17.5q-8 36 -15 81t-10 69t-10 87t-8 74q-56 -4 -84 -4l-1 -6q-46 -199 -46 -311q0 -12 -8 -20
t-20 -8t-20 8t-8 20q0 119 47 324q1 5 8 34t8.5 36.5t7 33t7.5 36.5l6 32q5 23 7 36l5 33q3 19 4 36q2 15 3 34q1 16 15 23q3 16 18 21q11 4 21.5 -0.5t14.5 -15.5z" />
    <glyph glyph-name="B" unicode="B" horiz-adv-x="346" 
d="M144 458q48 34 78 62q62 58 68 109q6 45 -29 73q-35 27 -83 15q-25 -6 -47 -20q4 -32 6 -89q2 -56 3 -70q3 -40 4 -80zM141 122q21 20 31 35q20 30 32 68.5t9 71.5t-20 51q-16 18 -47 22q2 -119 -5 -248zM185 418q29 -10 49 -32q31 -32 35 -85q3 -43 -11.5 -91t-39.5 -85
q-9 -13 -21 -26t-27.5 -27.5t-20.5 -19.5q-8 -9 -19 -9q-9 -9 -22 -8q-11 1 -19 9.5t-7 20.5q16 251 2 469q-1 22 -2.5 62t-2.5 59l-9 -8q-9 -7 -20.5 -6.5t-19 9t-7 20t8.5 19.5q25 23 39 34l-2 12q-3 12 3.5 21.5t17.5 11.5q20 5 30 -13q21 10 44 16q46 12 90.5 -3
t71.5 -54.5t20 -92.5q-9 -70 -86 -142q-30 -29 -75 -61z" />
    <glyph glyph-name="C" unicode="C" horiz-adv-x="228" 
d="M175 50q-97 45 -126 237q-11 76 -8 149.5t17 119.5q31 94 126 168q9 7 20.5 5.5t18.5 -10.5t5.5 -20.5t-10.5 -18.5q-81 -63 -106 -142q-13 -38 -15.5 -104t7.5 -138q12 -76 36.5 -128t58.5 -68q10 -4 14 -15t-0.5 -21.5t-15.5 -14.5t-22 1z" />
    <glyph glyph-name="D" unicode="D" horiz-adv-x="385" 
d="M161 60q13 -1 33 14q22 16 48 46q50 60 65 105q34 100 19 196q-11 69 -67.5 141.5t-118.5 90.5q-7 2 -12 7q29 -203 29 -489q0 -4 -2 -36q-1 -26 -1 -42q1 -21 6 -31q0 -1 1 -2zM120 681q0 3 1 7q3 11 13.5 16.5t21.5 2.5q79 -23 146 -108.5t80 -169.5q17 -109 -21 -222
q-19 -55 -76 -123q-30 -36 -59 -56q-38 -27 -72 -24q-31 3 -46 36q-8 19 -10 50q0 19 1 48q2 31 2 33q0 285 -29 486q-1 12 6 21t18 11q14 2 24 -8z" />
    <glyph glyph-name="E" unicode="E" horiz-adv-x="305" 
d="M133 449h11q5 0 7 0.5t4 0.5h3h1q1 0 7 2l22 5q12 3 21.5 -3t12.5 -17.5t-3 -21t-17 -12.5l-22 -6q-8 -2 -12 -2q-3 -1 -33 -2q7 -112 7 -147q1 -69 2 -99q0 -37 1 -59q1 -6 1 -11h4q16 -1 42 3q25 3 80 15q11 3 21 -3.5t12.5 -17.5t-4 -21t-17.5 -12q-57 -13 -84 -17
q-31 -4 -52 -3q-35 2 -49 19q-5 5 -6 12q-1 2 -1 4q-1 3 -1 8q-1 8 -2 21q-1 23 -1 61q-1 30 -2 100q-1 38 -5 110q-4 70 -5 101q-2 58 0 102q1 45 -2.5 98t-13.5 94q-3 11 2 20q0 2 -1 4q-1 12 6 21t18 11q15 2 85 22q11 3 21.5 -2.5t13.5 -16.5t-2.5 -21.5t-16.5 -13.5
q-65 -19 -70 -19q10 -44 13.5 -100.5t2 -101t0.5 -95.5v-10h1z" />
    <glyph glyph-name="F" unicode="F" horiz-adv-x="272" 
d="M112 749q22 2 62 9q47 9 68 11q12 1 21 -6t10 -19t-6 -21t-19 -10q-14 -1 -63 -10q-23 -4 -38 -6q3 -56 4 -119q63 2 88 2q12 0 20 -8t8 -20t-8 -20t-20 -8q-25 0 -88 -2q0 -64 -2 -149q-7 -298 -7 -330q0 -12 -8 -20t-20 -8t-20 8t-8 20q0 35 7 332q2 85 2 146h-13
q-12 0 -20 8t-8 20t8 20t20 8h13q-1 67 -5 126v4q-3 5 -4 12q-1 11 6.5 20t19.5 10z" />
    <glyph glyph-name="G" unicode="G" 
d="M212 698q-16 34 -30 39q-7 3 -19 -7q-16 -12 -31 -40q-15 -26 -23 -55q-13 -45 -16 -127q-3 -81 7 -176q10 -98 34 -166q25 -72 58 -96q31 -22 49 -2q5 6 16 41q12 36 23 86q10 49 15 87t3 47q-1 3 -2 5q-4 1 -14 -2q-31 -7 -36 -8q-12 -1 -21 6.5t-10 19t6.5 20.5
t18.5 10q1 0 29 7t48 -1q27 -10 35 -43q5 -19 -1 -68q-6 -39 -17 -92t-23 -91q-15 -47 -28 -62q-18 -20 -42 -25t-44 1t-37 18q-49 34 -79 124q-26 74 -37 178q-10 94 -7 184t18 141q10 34 29.5 68.5t43.5 54.5q36 29 73 16q36 -13 61 -68q5 -11 1 -22t-14.5 -15.5
t-21.5 -0.5t-15 14z" />
    <glyph glyph-name="H" unicode="H" horiz-adv-x="312" 
d="M278 760q18 -62 19 -211q0 -41 -1 -114.5t-1 -99.5q1 -49 8 -136q9 -98 10 -140q0 -12 -7.5 -20.5t-19.5 -8.5t-20.5 7.5t-8.5 19.5q-1 41 -10 137q-7 90 -8 141q0 25 1 99t1 115q-14 -2 -54 -12q-42 -10 -66 -14q11 -115 19 -278q1 -15 2 -58t4 -71q2 -26 7 -54
q2 -11 -5 -21t-18 -12t-21 5t-12 18q-5 29 -7.5 59t-3.5 75t-2 57q-13 266 -36 433q-1 12 6 21t18.5 10.5t20.5 -5.5t11 -18l12 -105q20 3 57 12q46 11 67 15q-3 95 -16 138q-3 11 2.5 21.5t16.5 13.5t21.5 -2.5t13.5 -16.5z" />
    <glyph glyph-name="I" unicode="I" horiz-adv-x="284" 
d="M90 832q14 -1 70 -4q46 -2 76 -6q11 -2 18 -11.5t5 -21t-11.5 -18.5t-21.5 -5q-25 4 -57 6q2 -37 5 -112q4 -97 7 -134l10 -110l11 -117q5 -45 8.5 -107.5t4.5 -115.5q20 1 42 1q12 0 20 -8t8 -20t-8 -20t-20 -8q-82 0 -152 -13q-11 -3 -20.5 3.5t-12 18t4 21t18.5 11.5
q31 7 64 10q0 53 -4 115.5t-8 107l-11 117.5q-7 65 -11 110q-3 41 -7 136q-3 79 -6 116q-15 1 -28 2q-11 1 -18.5 10t-6.5 20.5t10 19t21 6.5z" />
    <glyph glyph-name="J" unicode="J" horiz-adv-x="225" 
d="M193 644q15 -103 27 -284q7 -107 6 -173q0 -40 -4 -65q-5 -34 -17 -48q-14 -15 -49 -19q-49 -5 -76 30q-20 25 -25 71q-2 29 -2 49t1.5 47.5t1.5 33.5q0 12 8 20t20 8t20 -8t8 -20q0 -3 -2.5 -59t1.5 -65q3 -30 13 -42q8 -11 26 -9q6 0 13 2q2 6 4 17q3 22 3 58
q1 64 -6 168q-12 179 -27 280q-1 11 5.5 20.5t18 11t21 -5t11.5 -18.5z" />
    <glyph glyph-name="K" unicode="K" 
d="M200 468q31 -58 76 -173q51 -131 75 -184q5 -11 1 -21.5t-14.5 -15.5t-21 -1t-15.5 14q-22 47 -77 188q-33 83 -52 125q-1 -26 -2 -60q-1 -19 -3.5 -57.5t-3.5 -61t-2 -53.5t-1 -58t2 -51q1 -12 -7 -20.5t-19.5 -9.5t-20 7t-9.5 19q-2 26 -2 54t1 60t2 55t3.5 62t3.5 57
q9 179 -10 272q-3 12 3.5 21.5t18 12t21 -4t11.5 -17.5q9 -43 13 -95q51 94 100 156q7 9 18.5 10.5t20.5 -5.5t10.5 -18.5t-5.5 -20.5q-53 -69 -115 -186z" />
    <glyph glyph-name="L" unicode="L" horiz-adv-x="220" 
d="M129 762q3 -58 5 -128t2 -116.5t-0.5 -131.5t-0.5 -120q0 -7 -1 -46.5t-2 -65.5q0 -40 1 -63q1 -14 2 -22v-5q4 -3 15 -4h21q20 1 22 1q12 0 20 -8t8 -20t-8 -20t-20 -8q-1 0 -20 -1q-17 -1 -27 0q-44 4 -61 35q-4 8 -6 23q-1 10 -2 26q-1 26 -1 67q1 26 2 65t1 46
q0 36 0.5 120t0.5 130t-1.5 115.5t-5.5 126.5q-1 12 7 20.5t19.5 9.5t20 -7t9.5 -19z" />
    <glyph glyph-name="M" unicode="M" horiz-adv-x="425" 
d="M106 742q15 -13 27 -27t27 -35l19 -28l22.5 -36.5t18.5 -29.5q1 -2 2 -3q4 8 10 22l22 52q16 35 22 50q6 12 10 19q2 4 5 8q7 10 21 12q32 3 52 -36q10 -21 19 -57q10 -42 16 -96q10 -94 17 -269.5t10 -219.5q1 -12 -7 -20.5t-19.5 -9.5t-20 7t-9.5 19q-3 45 -10 219
q-7 169 -17 268q-5 51 -15 89q-3 16 -8 29l-14 -34l-23 -53q-13 -29 -20 -38q-10 -11 -19 -17q-18 -12 -37 -9q-21 4 -30 27l-3 6q-1 2 -1 3v2h-1q-43 70 -51 81q7 -68 7.5 -151t-2.5 -149l-6 -152q-3 -86 -3 -144q0 -12 -8 -20t-20 -8t-20 8t-8 20q0 71 6.5 210.5t5.5 248
t-17 204.5q-1 9 3 17q-1 12 8 20q8 9 19.5 9t19.5 -8z" />
    <glyph glyph-name="N" unicode="N" horiz-adv-x="403" 
d="M103 712q54 -61 103 -203q15 -44 37.5 -120t28.5 -94q9 -28 18 -65q3 27 3 32q9 69 38 324l3 40q3 30 6 53.5t9 44.5q3 11 13.5 16.5t21.5 2.5t16.5 -13.5t2.5 -21.5q-5 -19 -7 -38q-3 -19 -5 -46.5t-4 -43.5q-29 -256 -38 -326q-1 -3 -2 -17t-3.5 -37t-3.5 -40
q-4 -37 -6 -58l-3 -20q-1 -5 -2 -8l-2 -6q-4 -11 -16 -15q-12 -5 -23 0q-10 4 -16 14q-4 7 -5 19q0 1 -1 11v2q-7 27 -9 34q-28 110 -39 144q-5 19 -27.5 94t-37.5 119q-13 38 -26 68q7 -76 8 -159t-1 -194t-2 -155q0 -12 -8 -20t-20 -8t-20 8t-8 20q0 49 2 152.5t2 164.5
t-5.5 146.5t-18.5 155.5q-1 6 1 12q-10 20 7 34q8 8 19.5 7t19.5 -10z" />
    <glyph glyph-name="O" unicode="O" horiz-adv-x="394" 
d="M138 748q-14 -76 -14 -235q0 -28 7 -193q1 -16 1 -44t0.5 -45t3.5 -39t9 -40q21 -66 77 -56q27 5 52.5 26t38.5 52q28 67 26.5 150.5t-29.5 170.5q-27 81 -72 148t-100 105zM140 808q7 0 13 -4q70 -42 125 -120q54 -77 85 -172t33 -186q1 -92 -31 -174q-19 -43 -55 -73.5
t-77 -37.5q-47 -9 -85.5 15t-56.5 80q-8 27 -11.5 56t-4 74.5t-0.5 51.5q-7 166 -7 195q0 64 0.5 97.5t6 88t16.5 99.5q3 11 12.5 17t21.5 3q9 -2 15 -10z" />
    <glyph glyph-name="P" unicode="P" horiz-adv-x="365" 
d="M106 703q10 -42 15 -92q56 6 121 43q37 21 55 43q16 19 13 35q-2 9 -15 14q-17 6 -46 6q-58 -2 -97 -19q-14 -7 -46 -30zM75 749q33 25 53 34q51 23 120 25q41 1 68 -10q40 -16 48 -54q10 -42 -24 -83q-24 -29 -70 -55q-76 -44 -144 -51q5 -112 3 -184.5t-6.5 -183.5
t-4.5 -165q0 -12 -8 -20t-20 -8t-20 8t-8 20q0 55 7.5 215.5t3.5 275.5t-27 201q-3 11 3 21t17 13q4 1 9 1z" />
    <glyph glyph-name="Q" unicode="Q" horiz-adv-x="350" 
d="M239 136q18 81 20 201q2 117 -12 206q-15 90 -36 111q-4 4 -7 6.5t-7.5 4.5t-6.5 3t-11 3.5t-14 3.5q-45 -146 -48 -255q-1 -40 0 -163q1 -84 18 -152q12 -46 28 -64q12 -13 30 -3q15 7 28 41q-30 23 -47 38q-9 7 -10 19t6.5 20.5t19.5 9.5t20 -7q13 -11 29 -23zM267 44
q-20 -41 -48 -56q-56 -29 -97 15q-26 28 -41 88q-19 75 -20 166q-1 124 0 165q4 122 57 293q4 11 14 16.5t21 2.5q6 -2 10 -6q9 4 18 1q3 -1 13 -4t14.5 -4.5t12.5 -5t15 -9t15 -12.5q34 -34 51 -143q15 -96 13 -215q-2 -124 -22 -213l-6 -24q34 -25 55 -46q9 -8 9 -19.5
t-8 -20t-19.5 -8.5t-19.5 8z" />
    <glyph glyph-name="R" unicode="R" horiz-adv-x="464" 
d="M126 647q13 -75 15 -187q68 53 143 132q53 56 86 102q35 50 39 76v9q-3 4 -15 5q-22 4 -61 -4q-112 -23 -207 -133zM163 406q119 -134 170 -307q3 -11 -2.5 -21.5t-16.5 -13.5t-21.5 2.5t-13.5 16.5q-42 143 -137 261q-1 -40 -3.5 -132.5t-2.5 -134.5q0 -12 -8 -20
t-20 -8t-20 8t-8 20q0 44 3.5 167.5t2 216t-12.5 163.5q-1 1 -2 1q-8 7 -9.5 18t4.5 20q-1 11 5.5 19.5t16.5 10.5q2 1 4 1q104 115 229 140q49 10 81 6q31 -5 47 -22q22 -22 16 -58q-7 -39 -49 -98q-36 -50 -91 -108q-88 -93 -162 -148z" />
    <glyph glyph-name="S" unicode="S" horiz-adv-x="299" 
d="M245 721q-56 -5 -91 -54q-20 -28 -23.5 -63t5.5 -71.5t30 -82.5q11 -26 64 -127q41 -78 54 -121q23 -80 13 -116q-2 -8 -6.5 -15.5t-8.5 -13.5t-10.5 -12t-11.5 -10t-12.5 -9t-11.5 -7l-10 -6q-8 -4 -9 -4q-10 -6 -21.5 -3t-17 13t-2.5 21.5t13 16.5q20 11 27.5 16
t16 12.5t10.5 16.5q6 20 -13 84q-11 39 -49 111q-58 112 -66 130q-23 50 -34 91.5t-6 91.5t33 89q51 70 131 78q12 1 21 -6.5t10 -19t-6.5 -20.5t-18.5 -10z" />
    <glyph glyph-name="T" unicode="T" horiz-adv-x="228" 
d="M158 741q25 2 42 3q12 0 20.5 -7.5t8.5 -19.5t-7.5 -20.5t-19.5 -8.5t-25 -1q10 -107 8 -311q-2 -237 8 -337q1 -12 -6.5 -21t-19 -10t-20.5 6.5t-10 18.5q-10 109 -8 343q2 202 -8 306q-26 -2 -44 -3q-12 0 -20.5 7.5t-8.5 19.5t7.5 20.5t19.5 8.5q20 1 55 4q6 4 13 5
q8 1 15 -3z" />
    <glyph glyph-name="U" unicode="U" horiz-adv-x="434" 
d="M95 713q0 -212 17 -363q15 -122 40 -194q26 -75 57 -82q29 -6 56 38q14 21 43 94q71 179 71 512q0 12 8 20t20 8t20 -8t8 -20q0 -344 -75 -532q-31 -78 -47 -104q-49 -76 -116 -62q-62 12 -98 117q-27 78 -42 207q-18 155 -18 369q0 12 8 20t20 8t20 -8t8 -20z" />
    <glyph glyph-name="V" unicode="V" horiz-adv-x="330" 
d="M217 63v1v-1zM95 725q24 -72 39.5 -160.5t28.5 -190t24 -158.5l3 -11q1 11 2 18q29 220 51 363l5 38q5 32 7.5 46t8.5 38q6 25 13 44q4 11 14 16t21 1t16 -14t1 -21q-6 -17 -11 -38.5t-7 -35.5l-7 -43q-4 -30 -5 -39q-22 -143 -51 -363q-5 -36 -14 -92q-5 -33 -10 -51
q-2 -11 -4 -18q-2 -5 -4 -9t-5 -7q-9 -9 -21 -9q-21 0 -29 25l1 -1v3l-3 13l-8 41l-18 96q-8 39 -34 223t-58 278q-3 11 2 21.5t16 14t21.5 -1.5t14.5 -16zM162 52l1 -1v1h-1z" />
    <glyph glyph-name="W" unicode="W" horiz-adv-x="495" 
d="M64 714q10 -42 18 -104q11 -90 13 -101q26 -167 50 -293q7 -35 22 -98l8 21l25 63l11 24q3 6 6 10q7 8 15 12q22 9 44 -4q14 -8 28 -25q20 -23 44 -70l12 -25q1 15 4 85q10 263 77 499q3 11 13.5 16.5t21.5 2.5t16.5 -13.5t2.5 -21.5q-63 -219 -75 -485q-3 -67 -4 -92
q-2 -35 -5 -56q-2 -13 -5 -22q-2 -6 -4 -11q-7 -12 -20 -15q-12 -3 -22 3q-5 3 -8.5 7t-7.5 10q-5 8 -13 25l-9 19l-13 25l-11 23q-21 42 -37 60q-3 4 -5 6l-4 -9l-25 -62q-17 -42 -26 -62q-7 -15 -13 -24q-4 -6 -9 -10q-11 -10 -25 -9q-11 1 -18 10l-4 4q0 2 -1 4
q-1 1 -1.5 3t-1.5 5l-3 15l-11 46q-16 68 -23 106q-25 126 -52 295q-1 11 -13 102q-7 59 -16 97q-3 12 3 21.5t17.5 12.5t21 -3t12.5 -17z" />
    <glyph glyph-name="X" unicode="X" horiz-adv-x="298" 
d="M297 783q-14 -44 -41 -114q-33 -81 -43 -109q-16 -48 -32 -103l117 -391q3 -11 -2.5 -21t-16.5 -13.5t-21 2t-14 16.5l-90 302l-27 -110q-6 -25 -26 -94q-18 -62 -23 -92q-3 -11 -12.5 -18t-20.5 -4.5t-18 12t-5 20.5q8 38 25 97q22 75 26 93q40 164 50 200l-8 26
q-3 10 -12.5 44.5t-13.5 47.5l-13 41q-9 29 -16 45l-16 40q-9 23 -19 42q-5 11 -1.5 22t14 16t21.5 1.5t16 -13.5q38 -76 78 -213l8 23q10 30 43 112q27 68 39 109q4 11 14 16.5t21 2t16.5 -13.5t2.5 -21z" />
    <glyph glyph-name="Y" unicode="Y" horiz-adv-x="369" 
d="M369 821q-8 -22 -23 -53q-19 -40 -22 -47q-6 -13 -22 -60q-13 -41 -28 -67q-2 -5 -7 -8q0 -37 -6 -193q-5 -130 -1 -209q1 -12 4 -42q4 -30 4 -48q0 -12 -8 -20t-20 -8t-20 8t-8 20q0 15 -3 41q-4 37 -5 47q-4 76 1 213q5 143 6 178q-10 2 -16 10l-49 59l-65 75
q-40 45 -51 59q-8 8 -7 19.5t9.5 19.5t20 7t19.5 -10l49 -55l61 -70l47 -57q1 0 1 1q8 16 19 47q17 50 23 65q4 10 24 50q13 27 19 46q4 11 14.5 16t21.5 1.5t16 -14t2 -21.5z" />
    <glyph glyph-name="Z" unicode="Z" horiz-adv-x="262" 
d="M95 761q4 0 10.5 0.5t17.5 2.5l19 2q43 4 62 -4q29 -13 35 -57q3 -26 -1 -66q-3 -28 -10 -66q-1 -7 -2.5 -16.5t-3 -15.5t-1.5 -10q-7 -49 -18 -180q-9 -112 -18 -183q-1 -8 -5 -45q-4 -30 -8 -49q-1 -6 -5 -14q6 -2 17 -3q9 0 27 1h26q11 -1 19 -9.5t7 -20t-9.5 -19.5
t-20.5 -7h-20q-20 -1 -33 -1q-54 4 -69 38q-7 17 2 37q3 6 4 9q1 0 1 1q3 16 6 43l5 47q9 57 18 180q9 121 18 183q1 4 2 10.5t3 16.5t3 17q7 36 9 61q4 34 1 54q-1 9 -3 13q-9 2 -32 -1q-51 -5 -53 -5q-12 0 -20 8t-8 20t8 20t20 8z" />
    <glyph glyph-name="bracketleft" unicode="[" horiz-adv-x="259" 
d="M125 625q39 2 70 2q12 0 20 -8t8 -20t-8 -20t-20 -8h-41q3 -55 8 -260q3 -123 5 -168q1 -36 2 -55v-11q6 -3 18 -4q8 -1 25 -2t25 -2q11 -2 18 -11.5t5 -21t-11.5 -18.5t-21.5 -5q-4 1 -19 2q-18 1 -28 2q-46 6 -62 34l-4 10v3q0 2 -1 5v17q-1 19 -2 55q-1 21 -5 169
q-7 255 -9 284q-1 13 9 22q7 8 19 9z" />
    <glyph glyph-name="backslash" unicode="\" horiz-adv-x="364" 
d="M137 600l41 -80q29 -57 43 -88q28 -63 72 -178q50 -130 70 -177q4 -11 0 -21.5t-15 -15t-21.5 -0.5t-15.5 15l-70 179q-44 114 -72 176q-13 30 -42 86t-40 80q-5 11 -1 21.5t14.5 15.5t21 1t15.5 -14z" />
    <glyph glyph-name="bracketright" unicode="]" horiz-adv-x="230" 
d="M107 663l27 8q31 9 52 -5q18 -11 25 -43q5 -20 7 -51q1 -2 3 -81q6 -192 7 -227q3 -105 3 -140q1 -30 1 -47v-15q-1 -4 -1 -6q0 -6 -3 -11q-4 -9 -10.5 -16t-13 -11.5t-15 -7.5t-13.5 -4.5t-12 -2.5l-7 -1q-12 -3 -21.5 3t-12.5 17.5t3 21t17 12.5q31 8 33 10v11
q0 16 -1 46q0 34 -3 139q-1 35 -7 227q-2 77 -3 79q-2 26 -5 42q-1 5 -3 8q-2 0 -4 -1q-32 -9 -37 -10q-12 -1 -21 6.5t-10 19t6.5 20.5t18.5 10z" />
    <glyph glyph-name="asciicircum" unicode="^" horiz-adv-x="384" 
d="M156 447q1 10 3 21l3 20q2 9 5.5 22t5 19t6.5 20.5t6.5 18.5t7 20t6.5 18q0 1 1 5.5t3 10.5l4 13q4 13 7 21q3 5 5 9q5 9 12 14q38 23 73 -19q18 -22 37 -67q18 -41 43 -125q3 -11 -2.5 -21t-16.5 -13.5t-21 2t-14 16.5q-24 81 -40 119q-15 35 -28 51l-1 -4l-5 -13
q-2 -7 -3 -11.5t-2 -5.5q-35 -102 -39 -147q-1 -11 -10 -18.5t-20.5 -6.5t-19 10t-6.5 21z" />
    <glyph glyph-name="underscore" unicode="_" horiz-adv-x="531" 
d="M139 71q19 -1 38.5 0.5t47 5.5t43.5 6q119 12 239 -1q12 -1 19 -10t6 -21t-10 -19t-21 -6q-112 12 -227 1q-12 -1 -40 -5q-29 -4 -53 -6t-46 -1q-11 1 -19 9.5t-7 20t9.5 19.5t20.5 7z" />
    <glyph glyph-name="grave" unicode="`" horiz-adv-x="239" 
d="M172 824q28 -35 64 -91q6 -10 3.5 -21t-12.5 -17.5t-21 -4t-18 12.5q-33 52 -60 87q-7 9 -5.5 20.5t10.5 18.5t20.5 5.5t18.5 -10.5z" />
    <glyph glyph-name="a" unicode="a" horiz-adv-x="356" 
d="M252 442q-12 99 -30 170q-10 -67 -34 -173q20 0 64 3zM244 729q46 -120 69 -323q3 -23 9 -78l10 -84q3 -30 9.5 -74.5t14.5 -81.5q3 -11 -3.5 -21t-17.5 -12.5t-21 4t-12 17.5q-8 36 -15 81t-10 69t-10 87t-8 74q-56 -4 -84 -4l-1 -6q-46 -199 -46 -311q0 -12 -8 -20
t-20 -8t-20 8t-8 20q0 119 47 324q1 5 8 34t8.5 36.5t7 33t7.5 36.5l6 32q5 23 7 36l5 33q3 19 4 36q2 15 3 34q1 16 15 23q3 16 18 21q11 4 21.5 -0.5t14.5 -15.5z" />
    <glyph glyph-name="b" unicode="b" horiz-adv-x="346" 
d="M144 458q48 34 78 62q62 58 68 109q6 45 -29 73q-35 27 -83 15q-25 -6 -47 -20q4 -32 6 -89q2 -56 3 -70q3 -40 4 -80zM141 122q21 20 31 35q20 30 32 68.5t9 71.5t-20 51q-16 18 -47 22q2 -119 -5 -248zM185 418q29 -10 49 -32q31 -32 35 -85q3 -43 -11.5 -91t-39.5 -85
q-9 -13 -21 -26t-27.5 -27.5t-20.5 -19.5q-8 -9 -19 -9q-9 -9 -22 -8q-11 1 -19 9.5t-7 20.5q16 251 2 469q-1 22 -2.5 62t-2.5 59l-9 -8q-9 -7 -20.5 -6.5t-19 9t-7 20t8.5 19.5q25 23 39 34l-2 12q-3 12 3.5 21.5t17.5 11.5q20 5 30 -13q21 10 44 16q46 12 90.5 -3
t71.5 -54.5t20 -92.5q-9 -70 -86 -142q-30 -29 -75 -61z" />
    <glyph glyph-name="c" unicode="c" horiz-adv-x="228" 
d="M175 50q-97 45 -126 237q-11 76 -8 149.5t17 119.5q31 94 126 168q9 7 20.5 5.5t18.5 -10.5t5.5 -20.5t-10.5 -18.5q-81 -63 -106 -142q-13 -38 -15.5 -104t7.5 -138q12 -76 36.5 -128t58.5 -68q10 -4 14 -15t-0.5 -21.5t-15.5 -14.5t-22 1z" />
    <glyph glyph-name="d" unicode="d" horiz-adv-x="385" 
d="M161 60q13 -1 33 14q22 16 48 46q50 60 65 105q34 100 19 196q-11 69 -67.5 141.5t-118.5 90.5q-7 2 -12 7q29 -203 29 -489q0 -4 -2 -36q-1 -26 -1 -42q1 -21 6 -31q0 -1 1 -2zM120 681q0 3 1 7q3 11 13.5 16.5t21.5 2.5q79 -23 146 -108.5t80 -169.5q17 -109 -21 -222
q-19 -55 -76 -123q-30 -36 -59 -56q-38 -27 -72 -24q-31 3 -46 36q-8 19 -10 50q0 19 1 48q2 31 2 33q0 285 -29 486q-1 12 6 21t18 11q14 2 24 -8z" />
    <glyph glyph-name="e" unicode="e" horiz-adv-x="305" 
d="M133 449h11q5 0 7 0.5t4 0.5h3h1q1 0 7 2l22 5q12 3 21.5 -3t12.5 -17.5t-3 -21t-17 -12.5l-22 -6q-8 -2 -12 -2q-3 -1 -33 -2q7 -112 7 -147q1 -69 2 -99q0 -37 1 -59q1 -6 1 -11h4q16 -1 42 3q25 3 80 15q11 3 21 -3.5t12.5 -17.5t-4 -21t-17.5 -12q-57 -13 -84 -17
q-31 -4 -52 -3q-35 2 -49 19q-5 5 -6 12q-1 2 -1 4q-1 3 -1 8q-1 8 -2 21q-1 23 -1 61q-1 30 -2 100q-1 38 -5 110q-4 70 -5 101q-2 58 0 102q1 45 -2.5 98t-13.5 94q-3 11 2 20q0 2 -1 4q-1 12 6 21t18 11q15 2 85 22q11 3 21.5 -2.5t13.5 -16.5t-2.5 -21.5t-16.5 -13.5
q-65 -19 -70 -19q10 -44 13.5 -100.5t2 -101t0.5 -95.5v-10h1z" />
    <glyph glyph-name="f" unicode="f" horiz-adv-x="272" 
d="M112 749q22 2 62 9q47 9 68 11q12 1 21 -6t10 -19t-6 -21t-19 -10q-14 -1 -63 -10q-23 -4 -38 -6q3 -56 4 -119q63 2 88 2q12 0 20 -8t8 -20t-8 -20t-20 -8q-25 0 -88 -2q0 -64 -2 -149q-7 -298 -7 -330q0 -12 -8 -20t-20 -8t-20 8t-8 20q0 35 7 332q2 85 2 146h-13
q-12 0 -20 8t-8 20t8 20t20 8h13q-1 67 -5 126v4q-3 5 -4 12q-1 11 6.5 20t19.5 10z" />
    <glyph glyph-name="g" unicode="g" 
d="M212 698q-16 34 -30 39q-7 3 -19 -7q-16 -12 -31 -40q-15 -26 -23 -55q-13 -45 -16 -127q-3 -81 7 -176q10 -98 34 -166q25 -72 58 -96q31 -22 49 -2q5 6 16 41q12 36 23 86q10 49 15 87t3 47q-1 3 -2 5q-4 1 -14 -2q-31 -7 -36 -8q-12 -1 -21 6.5t-10 19t6.5 20.5
t18.5 10q1 0 29 7t48 -1q27 -10 35 -43q5 -19 -1 -68q-6 -39 -17 -92t-23 -91q-15 -47 -28 -62q-18 -20 -42 -25t-44 1t-37 18q-49 34 -79 124q-26 74 -37 178q-10 94 -7 184t18 141q10 34 29.5 68.5t43.5 54.5q36 29 73 16q36 -13 61 -68q5 -11 1 -22t-14.5 -15.5
t-21.5 -0.5t-15 14z" />
    <glyph glyph-name="h" unicode="h" horiz-adv-x="312" 
d="M278 760q18 -62 19 -211q0 -41 -1 -114.5t-1 -99.5q1 -49 8 -136q9 -98 10 -140q0 -12 -7.5 -20.5t-19.5 -8.5t-20.5 7.5t-8.5 19.5q-1 41 -10 137q-7 90 -8 141q0 25 1 99t1 115q-14 -2 -54 -12q-42 -10 -66 -14q11 -115 19 -278q1 -15 2 -58t4 -71q2 -26 7 -54
q2 -11 -5 -21t-18 -12t-21 5t-12 18q-5 29 -7.5 59t-3.5 75t-2 57q-13 266 -36 433q-1 12 6 21t18.5 10.5t20.5 -5.5t11 -18l12 -105q20 3 57 12q46 11 67 15q-3 95 -16 138q-3 11 2.5 21.5t16.5 13.5t21.5 -2.5t13.5 -16.5z" />
    <glyph glyph-name="i" unicode="i" horiz-adv-x="284" 
d="M90 832q14 -1 70 -4q46 -2 76 -6q11 -2 18 -11.5t5 -21t-11.5 -18.5t-21.5 -5q-25 4 -57 6q2 -37 5 -112q4 -97 7 -134l10 -110l11 -117q5 -45 8.5 -107.5t4.5 -115.5q20 1 42 1q12 0 20 -8t8 -20t-8 -20t-20 -8q-82 0 -152 -13q-11 -3 -20.5 3.5t-12 18t4 21t18.5 11.5
q31 7 64 10q0 53 -4 115.5t-8 107l-11 117.5q-7 65 -11 110q-3 41 -7 136q-3 79 -6 116q-15 1 -28 2q-11 1 -18.5 10t-6.5 20.5t10 19t21 6.5z" />
    <glyph glyph-name="j" unicode="j" horiz-adv-x="225" 
d="M193 644q15 -103 27 -284q7 -107 6 -173q0 -40 -4 -65q-5 -34 -17 -48q-14 -15 -49 -19q-49 -5 -76 30q-20 25 -25 71q-2 29 -2 49t1.5 47.5t1.5 33.5q0 12 8 20t20 8t20 -8t8 -20q0 -3 -2.5 -59t1.5 -65q3 -30 13 -42q8 -11 26 -9q6 0 13 2q2 6 4 17q3 22 3 58
q1 64 -6 168q-12 179 -27 280q-1 11 5.5 20.5t18 11t21 -5t11.5 -18.5z" />
    <glyph glyph-name="k" unicode="k" 
d="M200 468q31 -58 76 -173q51 -131 75 -184q5 -11 1 -21.5t-14.5 -15.5t-21 -1t-15.5 14q-22 47 -77 188q-33 83 -52 125q-1 -26 -2 -60q-1 -19 -3.5 -57.5t-3.5 -61t-2 -53.5t-1 -58t2 -51q1 -12 -7 -20.5t-19.5 -9.5t-20 7t-9.5 19q-2 26 -2 54t1 60t2 55t3.5 62t3.5 57
q9 179 -10 272q-3 12 3.5 21.5t18 12t21 -4t11.5 -17.5q9 -43 13 -95q51 94 100 156q7 9 18.5 10.5t20.5 -5.5t10.5 -18.5t-5.5 -20.5q-53 -69 -115 -186z" />
    <glyph glyph-name="l" unicode="l" horiz-adv-x="220" 
d="M129 762q3 -58 5 -128t2 -116.5t-0.5 -131.5t-0.5 -120q0 -7 -1 -46.5t-2 -65.5q0 -40 1 -63q1 -14 2 -22v-5q4 -3 15 -4h21q20 1 22 1q12 0 20 -8t8 -20t-8 -20t-20 -8q-1 0 -20 -1q-17 -1 -27 0q-44 4 -61 35q-4 8 -6 23q-1 10 -2 26q-1 26 -1 67q1 26 2 65t1 46
q0 36 0.5 120t0.5 130t-1.5 115.5t-5.5 126.5q-1 12 7 20.5t19.5 9.5t20 -7t9.5 -19z" />
    <glyph glyph-name="m" unicode="m" horiz-adv-x="425" 
d="M106 742q15 -13 27 -27t27 -35l19 -28l22.5 -36.5t18.5 -29.5q1 -2 2 -3q4 8 10 22l22 52q16 35 22 50q6 12 10 19q2 4 5 8q7 10 21 12q32 3 52 -36q10 -21 19 -57q10 -42 16 -96q10 -94 17 -269.5t10 -219.5q1 -12 -7 -20.5t-19.5 -9.5t-20 7t-9.5 19q-3 45 -10 219
q-7 169 -17 268q-5 51 -15 89q-3 16 -8 29l-14 -34l-23 -53q-13 -29 -20 -38q-10 -11 -19 -17q-18 -12 -37 -9q-21 4 -30 27l-3 6q-1 2 -1 3v2h-1q-43 70 -51 81q7 -68 7.5 -151t-2.5 -149l-6 -152q-3 -86 -3 -144q0 -12 -8 -20t-20 -8t-20 8t-8 20q0 71 6.5 210.5t5.5 248
t-17 204.5q-1 9 3 17q-1 12 8 20q8 9 19.5 9t19.5 -8z" />
    <glyph glyph-name="n" unicode="n" horiz-adv-x="403" 
d="M103 712q54 -61 103 -203q15 -44 37.5 -120t28.5 -94q9 -28 18 -65q3 27 3 32q9 69 38 324l3 40q3 30 6 53.5t9 44.5q3 11 13.5 16.5t21.5 2.5t16.5 -13.5t2.5 -21.5q-5 -19 -7 -38q-3 -19 -5 -46.5t-4 -43.5q-29 -256 -38 -326q-1 -3 -2 -17t-3.5 -37t-3.5 -40
q-4 -37 -6 -58l-3 -20q-1 -5 -2 -8l-2 -6q-4 -11 -16 -15q-12 -5 -23 0q-10 4 -16 14q-4 7 -5 19q0 1 -1 11v2q-7 27 -9 34q-28 110 -39 144q-5 19 -27.5 94t-37.5 119q-13 38 -26 68q7 -76 8 -159t-1 -194t-2 -155q0 -12 -8 -20t-20 -8t-20 8t-8 20q0 49 2 152.5t2 164.5
t-5.5 146.5t-18.5 155.5q-1 6 1 12q-10 20 7 34q8 8 19.5 7t19.5 -10z" />
    <glyph glyph-name="o" unicode="o" horiz-adv-x="313" 
d="M137 603q-22 -228 15 -400q10 -46 23 -56q2 -1 8 4q15 12 31.5 41.5t25.5 61.5t15 91q6 58 3 118q-3 67 -17 110t-36 54q-17 9 -29 5t-30 -22q-4 -5 -9 -7zM104 646l2 2q27 29 52 37q34 11 73 -8q42 -22 63 -87q16 -51 20 -125q3 -62 -3 -125.5t-17 -101.5
q-11 -37 -31.5 -75t-45.5 -56q-40 -31 -75 -5q-30 22 -44 89q-40 189 -16 431q2 20 22 24z" />
    <glyph glyph-name="p" unicode="p" horiz-adv-x="365" 
d="M106 703q10 -42 15 -92q56 6 121 43q37 21 55 43q16 19 13 35q-2 9 -15 14q-17 6 -46 6q-58 -2 -97 -19q-14 -7 -46 -30zM75 749q33 25 53 34q51 23 120 25q41 1 68 -10q40 -16 48 -54q10 -42 -24 -83q-24 -29 -70 -55q-76 -44 -144 -51q5 -112 3 -184.5t-6.5 -183.5
t-4.5 -165q0 -12 -8 -20t-20 -8t-20 8t-8 20q0 55 7.5 215.5t3.5 275.5t-27 201q-3 11 3 21t17 13q4 1 9 1z" />
    <glyph glyph-name="q" unicode="q" horiz-adv-x="350" 
d="M239 136q18 81 20 201q2 117 -12 206q-15 90 -36 111q-4 4 -7 6.5t-7.5 4.5t-6.5 3t-11 3.5t-14 3.5q-45 -146 -48 -255q-1 -40 0 -163q1 -84 18 -152q12 -46 28 -64q12 -13 30 -3q15 7 28 41q-30 23 -47 38q-9 7 -10 19t6.5 20.5t19.5 9.5t20 -7q13 -11 29 -23zM267 44
q-20 -41 -48 -56q-56 -29 -97 15q-26 28 -41 88q-19 75 -20 166q-1 124 0 165q4 122 57 293q4 11 14 16.5t21 2.5q6 -2 10 -6q9 4 18 1q3 -1 13 -4t14.5 -4.5t12.5 -5t15 -9t15 -12.5q34 -34 51 -143q15 -96 13 -215q-2 -124 -22 -213l-6 -24q34 -25 55 -46q9 -8 9 -19.5
t-8 -20t-19.5 -8.5t-19.5 8z" />
    <glyph glyph-name="r" unicode="r" 
d="M109 710l6 -81q44 16 71.5 43t30.5 46q0 4 -1 6q-2 3 -10 4q-31 7 -97 -18zM148 582q43 -71 78 -163.5t70.5 -206t55.5 -166.5q4 -11 -0.5 -21.5t-15.5 -14.5t-21.5 0.5t-14.5 15.5q-14 36 -73 218.5t-104 268.5q6 -90 15 -252q1 -18 5 -79t4 -82.5t-1 -82.5
q-1 -11 -9.5 -19t-20 -7t-19.5 9.5t-7 20.5q1 58 1 78t-4 79t-5 81q-3 62 -31 479q-1 12 7 20.5t19 9.5q9 1 16 -4q78 29 125 19q28 -6 42.5 -25.5t11.5 -46.5q-4 -36 -38 -71.5t-86 -57.5z" />
    <glyph glyph-name="s" unicode="s" horiz-adv-x="299" 
d="M245 721q-56 -5 -91 -54q-20 -28 -23.5 -63t5.5 -71.5t30 -82.5q11 -26 64 -127q41 -78 54 -121q23 -80 13 -116q-2 -8 -6.5 -15.5t-8.5 -13.5t-10.5 -12t-11.5 -10t-12.5 -9t-11.5 -7l-10 -6q-8 -4 -9 -4q-10 -6 -21.5 -3t-17 13t-2.5 21.5t13 16.5q20 11 27.5 16
t16 12.5t10.5 16.5q6 20 -13 84q-11 39 -49 111q-58 112 -66 130q-23 50 -34 91.5t-6 91.5t33 89q51 70 131 78q12 1 21 -6.5t10 -19t-6.5 -20.5t-18.5 -10z" />
    <glyph glyph-name="t" unicode="t" horiz-adv-x="228" 
d="M158 741q25 2 42 3q12 0 20.5 -7.5t8.5 -19.5t-7.5 -20.5t-19.5 -8.5t-25 -1q10 -107 8 -311q-2 -237 8 -337q1 -12 -6.5 -21t-19 -10t-20.5 6.5t-10 18.5q-10 109 -8 343q2 202 -8 306q-26 -2 -44 -3q-12 0 -20.5 7.5t-8.5 19.5t7.5 20.5t19.5 8.5q20 1 55 4q6 4 13 5
q8 1 15 -3z" />
    <glyph glyph-name="u" unicode="u" horiz-adv-x="434" 
d="M95 713q0 -212 17 -363q15 -122 40 -194q26 -75 57 -82q29 -6 56 38q14 21 43 94q71 179 71 512q0 12 8 20t20 8t20 -8t8 -20q0 -344 -75 -532q-31 -78 -47 -104q-49 -76 -116 -62q-62 12 -98 117q-27 78 -42 207q-18 155 -18 369q0 12 8 20t20 8t20 -8t8 -20z" />
    <glyph glyph-name="v" unicode="v" horiz-adv-x="330" 
d="M217 63v1v-1zM95 725q24 -72 39.5 -160.5t28.5 -190t24 -158.5l3 -11q1 11 2 18q29 220 51 363l5 38q5 32 7.5 46t8.5 38q6 25 13 44q4 11 14 16t21 1t16 -14t1 -21q-6 -17 -11 -38.5t-7 -35.5l-7 -43q-4 -30 -5 -39q-22 -143 -51 -363q-5 -36 -14 -92q-5 -33 -10 -51
q-2 -11 -4 -18q-2 -5 -4 -9t-5 -7q-9 -9 -21 -9q-21 0 -29 25l1 -1v3l-3 13l-8 41l-18 96q-8 39 -34 223t-58 278q-3 11 2 21.5t16 14t21.5 -1.5t14.5 -16zM162 52l1 -1v1h-1z" />
    <glyph glyph-name="w" unicode="w" horiz-adv-x="495" 
d="M64 714q10 -42 18 -104q11 -90 13 -101q26 -167 50 -293q7 -35 22 -98l8 21l25 63l11 24q3 6 6 10q7 8 15 12q22 9 44 -4q14 -8 28 -25q20 -23 44 -70l12 -25q1 15 4 85q10 263 77 499q3 11 13.5 16.5t21.5 2.5t16.5 -13.5t2.5 -21.5q-63 -219 -75 -485q-3 -67 -4 -92
q-2 -35 -5 -56q-2 -13 -5 -22q-2 -6 -4 -11q-7 -12 -20 -15q-12 -3 -22 3q-5 3 -8.5 7t-7.5 10q-5 8 -13 25l-9 19l-13 25l-11 23q-21 42 -37 60q-3 4 -5 6l-4 -9l-25 -62q-17 -42 -26 -62q-7 -15 -13 -24q-4 -6 -9 -10q-11 -10 -25 -9q-11 1 -18 10l-4 4q0 2 -1 4
q-1 1 -1.5 3t-1.5 5l-3 15l-11 46q-16 68 -23 106q-25 126 -52 295q-1 11 -13 102q-7 59 -16 97q-3 12 3 21.5t17.5 12.5t21 -3t12.5 -17z" />
    <glyph glyph-name="x" unicode="x" horiz-adv-x="298" 
d="M297 783q-14 -44 -41 -114q-33 -81 -43 -109q-16 -48 -32 -103l117 -391q3 -11 -2.5 -21t-16.5 -13.5t-21 2t-14 16.5l-90 302l-27 -110q-6 -25 -26 -94q-18 -62 -23 -92q-3 -11 -12.5 -18t-20.5 -4.5t-18 12t-5 20.5q8 38 25 97q22 75 26 93q40 164 50 200l-8 26
q-3 10 -12.5 44.5t-13.5 47.5l-13 41q-9 29 -16 45l-16 40q-9 23 -19 42q-5 11 -1.5 22t14 16t21.5 1.5t16 -13.5q38 -76 78 -213l8 23q10 30 43 112q27 68 39 109q4 11 14 16.5t21 2t16.5 -13.5t2.5 -21z" />
    <glyph glyph-name="y" unicode="y" horiz-adv-x="369" 
d="M369 821q-8 -22 -23 -53q-19 -40 -22 -47q-6 -13 -22 -60q-13 -41 -28 -67q-2 -5 -7 -8q0 -37 -6 -193q-5 -130 -1 -209q1 -12 4 -42q4 -30 4 -48q0 -12 -8 -20t-20 -8t-20 8t-8 20q0 15 -3 41q-4 37 -5 47q-4 76 1 213q5 143 6 178q-10 2 -16 10l-49 59l-65 75
q-40 45 -51 59q-8 8 -7 19.5t9.5 19.5t20 7t19.5 -10l49 -55l61 -70l47 -57q1 0 1 1q8 16 19 47q17 50 23 65q4 10 24 50q13 27 19 46q4 11 14.5 16t21.5 1.5t16 -14t2 -21.5z" />
    <glyph glyph-name="z" unicode="z" horiz-adv-x="262" 
d="M95 761q4 0 10.5 0.5t17.5 2.5l19 2q43 4 62 -4q29 -13 35 -57q3 -26 -1 -66q-3 -28 -10 -66q-1 -7 -2.5 -16.5t-3 -15.5t-1.5 -10q-7 -49 -18 -180q-9 -112 -18 -183q-1 -8 -5 -45q-4 -30 -8 -49q-1 -6 -5 -14q6 -2 17 -3q9 0 27 1h26q11 -1 19 -9.5t7 -20t-9.5 -19.5
t-20.5 -7h-20q-20 -1 -33 -1q-54 4 -69 38q-7 17 2 37q3 6 4 9q1 0 1 1q3 16 6 43l5 47q9 57 18 180q9 121 18 183q1 4 2 10.5t3 16.5t3 17q7 36 9 61q4 34 1 54q-1 9 -3 13q-9 2 -32 -1q-51 -5 -53 -5q-12 0 -20 8t-8 20t8 20t20 8z" />
    <glyph glyph-name="braceleft" unicode="{" horiz-adv-x="272" 
d="M251 689q-56 -12 -78 -65.5t-11 -126.5q2 -13 13 -44q13 -35 15 -57q3 -36 -14 -57q-14 -17 -40 -23q-4 -1 -16 -3q-6 -1 -9 -2l2 -17l9 -67l10 -69q2 -15 4 -23l1 -7q4 -13 13 -25q20 -25 77 -48q11 -4 15.5 -15t0.5 -21.5t-15 -15t-21 -0.5q-71 28 -101 66
q-15 19 -23 41q-1 4 -3 16q-1 9 -3 24l-10 69l-9 68l-3 23q0 4 -1 7v3v2q0 4 2 10q10 24 37 33q7 2 17.5 3.5t13.5 2.5q7 2 9 3q2 4 1 18t-12 42q-13 36 -16 55q-3 29 -3.5 60t8 62.5t23 58t42 46.5t63.5 27q12 3 21.5 -3.5t12 -18t-4 -21t-17.5 -11.5z" />
    <glyph glyph-name="bar" unicode="|" horiz-adv-x="141" 
d="M142 668q0 -102 -2 -305t-2 -305q0 -12 -8 -20t-20 -8t-20 8t-8 20q0 102 2 305t2 305q0 12 8 20t20 8t20 -8t8 -20z" />
    <glyph glyph-name="braceright" unicode="}" horiz-adv-x="285" 
d="M90 722q80 0 112 -38q28 -32 19 -91q-2 -13 -22 -90q-13 -50 -9 -74q3 -20 10 -28q4 -5 13 -7q4 -1 23 -3q26 -1 37 -14q18 -19 11 -44q-3 -15 -16 -31q-5 -7 -18 -21l-7 -9q-9 -17 -13.5 -35.5t-8 -45t-6.5 -42.5q-8 -41 -30.5 -71.5t-70.5 -49.5q-11 -4 -21.5 0.5
t-14.5 15.5t0.5 21.5t15.5 14.5q32 13 46 32t20 48q2 7 5.5 37t10 55t17.5 46q4 7 16 20l15 18q-14 1 -24 3q-26 6 -42 24q-19 21 -24 58q-5 34 11 96q19 74 21 84q5 34 -6 47q-16 18 -70 18q-12 0 -20 8t-8 20t8 20t20 8z" />
    <glyph glyph-name="asciitilde" unicode="~" horiz-adv-x="484" 
d="M46 306q61 114 130 121q21 3 44 -5.5t36.5 -17.5t32.5 -24q3 -3 11 -9.5t12 -8.5l10 -8l10 -8l8.5 -5.5t9 -5t8 -3t8.5 -2.5q32 -7 67 50q6 10 17.5 12.5t21.5 -3.5t12.5 -17.5t-3.5 -21.5q-57 -90 -127 -75q-9 2 -19 6t-17.5 8t-18.5 12l-16 11q-5 4 -16 13.5t-13 10.5
q-48 38 -72 36q-40 -5 -86 -92q-6 -10 -17 -13.5t-21 2t-13.5 16.5t1.5 21z" />
    <glyph glyph-name="quoteleft" unicode="&#x2018;" horiz-adv-x="148" 
d="M147 747q-28 -64 -32 -90q-8 -42 17 -66q8 -8 8 -20t-8 -20t-20 -8t-20 8q-45 45 -33 116q6 33 36 102q5 11 16 15t21.5 -0.5t14.5 -15.5t0 -21z" />
    <glyph glyph-name="quoteright" unicode="&#x2019;" horiz-adv-x="184" 
d="M135 796q43 -48 50 -106.5t-30 -114.5q-7 -10 -18.5 -12t-21 5t-11.5 18.5t5 20.5q25 36 20.5 76.5t-36.5 74.5q-8 9 -7 20.5t9.5 19.5t20 7t19.5 -9z" />
    <glyph glyph-name="quotedblleft" unicode="&#x201c;" horiz-adv-x="222" 
d="M150 757q-44 -77 0 -170q5 -10 1 -21t-14 -16t-21 -1t-16 14q-57 119 2 222q5 10 16.5 13t21.5 -2.5t13 -17t-3 -21.5zM214 730q-5 -31 -3.5 -51t11.5 -53q3 -12 -2.5 -22t-17 -13t-21.5 2.5t-13 16.5q-11 40 -13 64q-2 25 5 68q2 11 11.5 17.5t21 4t18 -12t3.5 -21.5z
" />
    <glyph glyph-name="quotedblright" unicode="&#x201d;" horiz-adv-x="256" 
d="M138 795q39 -59 44 -98q7 -54 -38 -105q-7 -9 -19 -10t-20.5 6.5t-9.5 19.5t7 20q28 33 25 62q-3 26 -35 73q-7 10 -4.5 21.5t12 18t21 4t17.5 -11.5zM211 799q33 -44 42 -83q9 -38 0 -90q-2 -12 -11.5 -18.5t-21 -5t-18 11t-5.5 20.5q7 43 1 70t-31 61q-7 10 -5.5 21.5
t11 18t21 5t17.5 -10.5z" />
    <glyph glyph-name="uni3000" unicode="&#x3000;" horiz-adv-x="1000" 
 />
  </font>
</defs>
</svg>
